<?xml version="1.0" encoding="utf-8"?>
<!-- Generator: Adobe Illustrator 24.3.0, SVG Export Plug-In . SVG Version: 6.00 Build 0)  -->
<svg version="1.1" id="Layer_1" xmlns="http://www.w3.org/2000/svg" xmlns:xlink="http://www.w3.org/1999/xlink" x="0px" y="0px"
	 viewBox="0 0 16 16" style="enable-background:new 0 0 16 16;" xml:space="preserve">
<style type="text/css">
	.st0{fill:#FFFFFF;}
</style>
<g>
	<g>
		<path class="st0" d="M1.8,4.5h2v0.4H2.2v0.9h1.4v0.4H2.2v1.3H1.8V4.5z"/>
		<path class="st0" d="M5.7,7c0,0.2,0,0.4,0,0.5H5.3c0,0,0-0.2,0-0.3C5.2,7.4,5,7.6,4.6,7.6c-0.5,0-0.7-0.3-0.7-0.7
			c0-0.5,0.4-0.7,1-0.7c0.1,0,0.3,0,0.4,0V6c0-0.2-0.1-0.4-0.5-0.4c-0.3,0-0.4,0.2-0.4,0.3H4c0-0.3,0.2-0.7,0.9-0.7
			c0.6,0,0.9,0.2,0.9,0.7V7H5.7z M5.3,6.4c-0.1,0-0.2,0-0.3,0c-0.4,0-0.6,0.1-0.6,0.4c0,0.2,0.1,0.4,0.4,0.4
			C5.2,7.2,5.3,6.9,5.3,6.4L5.3,6.4z"/>
		<path class="st0" d="M6.2,5.9c0-0.3,0-0.5,0-0.6h0.4c0,0.1,0,0.2,0,0.4C6.7,5.4,7,5.3,7.3,5.2v0.4c-0.5,0-0.7,0.2-0.7,0.8v1.1H6.2
			V5.9z"/>
		<path class="st0" d="M7.6,4.3H8v0.5H7.6V4.3z M7.6,5.3H8v2.2H7.6V5.3z"/>
		<path class="st0" d="M8.7,6.9c0.1,0.2,0.2,0.4,0.5,0.4S9.6,7.2,9.6,7c0-0.2-0.1-0.3-0.5-0.4C8.5,6.4,8.3,6.2,8.3,5.9
			c0-0.3,0.2-0.6,0.8-0.6S9.9,5.6,10,5.9H9.6c0-0.1-0.1-0.3-0.5-0.3c-0.3,0-0.4,0.1-0.4,0.3c0,0.2,0.1,0.2,0.5,0.3
			C9.9,6.4,10,6.6,10,6.9c0,0.4-0.3,0.7-0.9,0.7c-0.6,0-0.9-0.3-0.9-0.7H8.7z"/>
		<path class="st0" d="M1.6,11.3v-0.7h0.5v0.7H1.6z"/>
		<path class="st0" d="M4.3,8.1v2.6c0,0.2,0,0.4,0,0.6H3.9c0-0.1,0-0.2,0-0.3c-0.1,0.2-0.3,0.3-0.7,0.3c-0.6,0-0.9-0.5-0.9-1.1
			c0-0.7,0.4-1.2,1-1.2c0.4,0,0.6,0.1,0.6,0.3V8.1H4.3z M2.8,10.2C2.8,10.7,3,11,3.3,11c0.5,0,0.6-0.4,0.6-0.8
			c0-0.5-0.1-0.8-0.6-0.8C3,9.4,2.8,9.7,2.8,10.2z"/>
		<path class="st0" d="M5.1,10.2c0,0.4,0.2,0.7,0.6,0.7c0.3,0,0.4-0.2,0.5-0.3h0.4c-0.1,0.3-0.3,0.7-0.9,0.7c-0.7,0-1-0.6-1-1.1
			C4.6,9.5,5,9,5.7,9s1,0.6,1,1.1c0,0.1,0,0.1,0,0.2H5.1V10.2z M6.2,10c0-0.3-0.2-0.6-0.5-0.6c-0.4,0-0.5,0.3-0.6,0.6H6.2z"/>
		<path class="st0" d="M7.2,10.6c0,0.3,0.2,0.4,0.5,0.4c0.3,0,0.4-0.1,0.4-0.3S8,10.4,7.6,10.3C7,10.1,6.8,9.9,6.8,9.6
			C6.8,9.3,7.1,9,7.6,9c0.6,0,0.8,0.3,0.9,0.6H8.1c0-0.1-0.1-0.3-0.5-0.3c-0.3,0-0.4,0.1-0.4,0.3s0.1,0.2,0.5,0.3
			c0.7,0.2,0.8,0.4,0.8,0.7c0,0.4-0.3,0.7-0.9,0.7S6.7,11,6.7,10.6H7.2z"/>
		<path class="st0" d="M8.8,8.1h0.4v0.5H8.8V8.1z M8.8,9.1h0.4v2.2H8.8V9.1z"/>
		<path class="st0" d="M11.6,11.1c0,0.7-0.3,1.1-1,1.1s-0.9-0.4-0.9-0.7h0.4c0.1,0.2,0.2,0.3,0.5,0.3c0.5,0,0.6-0.3,0.6-0.8v-0.2
			c-0.1,0.2-0.3,0.4-0.7,0.4c-0.6,0-0.9-0.5-0.9-1.1c0-0.7,0.4-1.2,1-1.2c0.4,0,0.6,0.2,0.6,0.3c0-0.1,0-0.2,0-0.3h0.4
			c0,0.1,0,0.4,0,0.6C11.6,9.5,11.6,11.1,11.6,11.1z M10,10.1c0,0.5,0.2,0.7,0.6,0.7c0.5,0,0.6-0.3,0.6-0.8s-0.1-0.8-0.6-0.8
			C10.2,9.4,10,9.7,10,10.1z"/>
		<path class="st0" d="M12,9.6c0-0.2,0-0.4,0-0.6h0.4c0,0.1,0,0.3,0,0.3C12.6,9.2,12.7,9,13.2,9c0.4,0,0.7,0.3,0.7,0.8v1.4h-0.4V9.9
			c0-0.3-0.1-0.5-0.4-0.5c-0.4,0-0.6,0.3-0.6,0.7v1.2H12V9.6z"/>
	</g>
</g>
<g>
	<g>
		<path class="st0" d="M13.7,8.2h-0.2V8.1H14v0.1L13.7,8.2l0.1,0.5h-0.1V8.2z"/>
		<path class="st0" d="M14.5,8.4c0-0.1,0-0.2,0-0.3l0,0c0,0.1-0.1,0.3-0.2,0.5h-0.1c0-0.2-0.1-0.4-0.2-0.5l0,0c0,0.1,0,0.2,0,0.3
			v0.2l0,0V8.1h0.1c0.1,0.2,0.1,0.4,0.2,0.5l0,0c0-0.1,0.1-0.3,0.2-0.5h0.1v0.6h-0.1V8.4z"/>
	</g>
</g>
<g id="Shape_1">
	<g>
		<polygon class="st0" points="1.5,7.6 10.2,7.6 10.2,7.6 		"/>
	</g>
</g>
<g id="Shape_1_copy">
	<g>
		<polygon class="st0" points="1.5,11.3 14.4,11.3 14.4,11.3 		"/>
	</g>
</g>
<g id="Ellipse_1">
	<g>
		<path class="st0" d="M1.4,7.5L1.4,7.5C1.3,7.6,1.4,7.6,1.4,7.5C1.5,7.6,1.5,7.6,1.4,7.5C1.5,7.5,1.5,7.5,1.4,7.5z"/>
	</g>
</g>
</svg>
