<?xml version="1.0" encoding="utf-8"?>
<!-- Generator: Adobe Illustrator 24.3.0, SVG Export Plug-In . SVG Version: 6.00 Build 0)  -->
<svg version="1.1" id="Layer_1" xmlns="http://www.w3.org/2000/svg" xmlns:xlink="http://www.w3.org/1999/xlink" x="0px" y="0px"
	 viewBox="0 0 16 16" style="enable-background:new 0 0 16 16;" xml:space="preserve">
<style type="text/css">
	.st0{display:none;}
	.st1{fill:#898989;}
</style>
<path class="st0" d="M15,8v1h1v1h-1v1v1v1v1h-1v1l0,0h-1h-1h-1h-1H9H8H7H6H5H4H2.8H2.4H2.1l0,0v-1H1v-1v-1v-1v-1H0V9h1V8H0V7h1h0.7
	V6V5h1V4V3V2h1V1h1v1h1v1h1h1h1h1V2h1V1h1v1h1v1v1v1h1v1v1H15h1v1H15z"/>
<path class="st0" d="M9.7,5.9h1v1v1h-1V7V5.9z M5.2,7v1h1V7V6h-1V7z"/>
<g>
	<g>
		<path d="M1.8,4.5h2v0.4H2.2v0.9h1.4v0.4H2.2v1.3H1.8V4.5z"/>
		<path d="M5.7,7c0,0.2,0,0.4,0,0.5H5.3c0,0,0-0.2,0-0.3C5.2,7.4,5,7.6,4.6,7.6c-0.5,0-0.7-0.3-0.7-0.7c0-0.5,0.4-0.7,1-0.7
			c0.1,0,0.3,0,0.4,0V6c0-0.2-0.1-0.4-0.5-0.4c-0.3,0-0.4,0.2-0.4,0.3H4c0-0.3,0.2-0.7,0.9-0.7c0.6,0,0.9,0.2,0.9,0.7V7z M5.3,6.4
			c-0.1,0-0.2,0-0.3,0c-0.4,0-0.6,0.1-0.6,0.4c0,0.2,0.1,0.4,0.4,0.4C5.2,7.2,5.3,6.9,5.3,6.4L5.3,6.4z"/>
		<path d="M6.2,5.9c0-0.3,0-0.5,0-0.6h0.4c0,0.1,0,0.2,0,0.4C6.7,5.4,7,5.3,7.3,5.2v0.4c-0.5,0-0.7,0.2-0.7,0.8v1.1H6.2V5.9z"/>
		<path d="M7.6,4.3H8v0.5H7.6V4.3z M7.6,5.3H8v2.2H7.6V5.3z"/>
		<path d="M8.7,6.9c0.1,0.2,0.2,0.4,0.5,0.4c0.3,0,0.4-0.1,0.4-0.3c0-0.2-0.1-0.3-0.5-0.4C8.5,6.4,8.3,6.2,8.3,5.9
			c0-0.3,0.2-0.6,0.8-0.6c0.6,0,0.8,0.3,0.9,0.6H9.6c0-0.1-0.1-0.3-0.5-0.3c-0.3,0-0.4,0.1-0.4,0.3c0,0.2,0.1,0.2,0.5,0.3
			c0.7,0.2,0.8,0.4,0.8,0.7c0,0.4-0.3,0.7-0.9,0.7c-0.6,0-0.9-0.3-0.9-0.7H8.7z"/>
		<path d="M1.6,11.3v-0.7h0.5v0.7H1.6z"/>
		<path d="M4.3,8.1v2.6c0,0.2,0,0.4,0,0.6H3.9c0-0.1,0-0.2,0-0.3c-0.1,0.2-0.3,0.3-0.7,0.3c-0.6,0-0.9-0.5-0.9-1.1
			c0-0.7,0.4-1.2,1-1.2c0.4,0,0.6,0.1,0.6,0.3V8.1H4.3z M2.8,10.2C2.8,10.7,3,11,3.3,11c0.5,0,0.6-0.4,0.6-0.8
			c0-0.5-0.1-0.8-0.6-0.8C3,9.4,2.8,9.7,2.8,10.2z"/>
		<path d="M5.1,10.2c0,0.4,0.2,0.7,0.6,0.7c0.3,0,0.4-0.2,0.5-0.3h0.4c-0.1,0.3-0.3,0.7-0.9,0.7c-0.7,0-1-0.6-1-1.1
			C4.6,9.5,5,9,5.7,9c0.7,0,1,0.6,1,1.1c0,0.1,0,0.1,0,0.2H5.1z M6.2,10c0-0.3-0.2-0.6-0.5-0.6c-0.4,0-0.5,0.3-0.6,0.6H6.2z"/>
		<path d="M7.2,10.6C7.2,10.9,7.4,11,7.7,11c0.3,0,0.4-0.1,0.4-0.3c0-0.2-0.1-0.3-0.5-0.4C7,10.1,6.8,9.9,6.8,9.6
			C6.8,9.3,7.1,9,7.6,9c0.6,0,0.8,0.3,0.9,0.6H8.1c0-0.1-0.1-0.3-0.5-0.3c-0.3,0-0.4,0.1-0.4,0.3c0,0.2,0.1,0.2,0.5,0.3
			c0.7,0.2,0.8,0.4,0.8,0.7c0,0.4-0.3,0.7-0.9,0.7c-0.6,0-0.9-0.3-0.9-0.7H7.2z"/>
		<path d="M8.8,8.1h0.4v0.5H8.8V8.1z M8.8,9.1h0.4v2.2H8.8V9.1z"/>
		<path d="M11.6,11.1c0,0.7-0.3,1.1-1,1.1c-0.7,0-0.9-0.4-0.9-0.7h0.4c0.1,0.2,0.2,0.3,0.5,0.3c0.5,0,0.6-0.3,0.6-0.8v-0.2
			c-0.1,0.2-0.3,0.4-0.7,0.4c-0.6,0-0.9-0.5-0.9-1.1c0-0.7,0.4-1.2,1-1.2c0.4,0,0.6,0.2,0.6,0.3c0-0.1,0-0.2,0-0.3h0.4
			c0,0.1,0,0.4,0,0.6V11.1z M10,10.1c0,0.5,0.2,0.7,0.6,0.7c0.5,0,0.6-0.3,0.6-0.8c0-0.5-0.1-0.8-0.6-0.8C10.2,9.4,10,9.7,10,10.1z"
			/>
		<path d="M12,9.6c0-0.2,0-0.4,0-0.6h0.4c0,0.1,0,0.3,0,0.3C12.6,9.2,12.7,9,13.2,9c0.4,0,0.7,0.3,0.7,0.8v1.4h-0.4V9.9
			c0-0.3-0.1-0.5-0.4-0.5c-0.4,0-0.6,0.3-0.6,0.7v1.2H12V9.6z"/>
	</g>
</g>
<g>
	<g>
		<path d="M13.7,8.2h-0.2V8.1H14v0.1H13.7l0.1,0.5h-0.1V8.2z"/>
		<path d="M14.5,8.4c0-0.1,0-0.2,0-0.3h0c0,0.1-0.1,0.3-0.2,0.5h-0.1c0-0.2-0.1-0.4-0.2-0.5h0c0,0.1,0,0.2,0,0.3v0.2H14V8.1h0.1
			c0.1,0.2,0.1,0.4,0.2,0.5h0c0-0.1,0.1-0.3,0.2-0.5h0.1v0.6h-0.1V8.4z"/>
	</g>
</g>
<g id="Shape_1">
	<g>
		<rect x="1.5" y="7.6" class="st1" width="8.7" height="0"/>
	</g>
</g>
<g id="Shape_1_copy">
	<g>
		<rect x="1.5" y="11.3" class="st1" width="12.9" height="0"/>
	</g>
</g>
<g id="Ellipse_1">
	<g>
		<path class="st1" d="M1.4,7.5C1.4,7.5,1.4,7.5,1.4,7.5c-0.1,0.1,0,0.1,0,0.1C1.5,7.6,1.5,7.6,1.4,7.5C1.5,7.5,1.5,7.5,1.4,7.5z"/>
	</g>
</g>
</svg>
