<svg id="Layer_1" data-name="Layer 1" xmlns="http://www.w3.org/2000/svg" width="4.67235mm" height="2.78694mm" viewBox="0 0 13.24444 7.9">
  <defs>
    <style>
      .cls-1 {
        fill: #fff;
      }
    </style>
  </defs>
  <g>
    <path class="cls-1" d="M1.8,4.5h2v.4H2.2v.9H3.6v.4H2.2V7.5H1.8Z" transform="translate(-1.35556 -4.29999)"/>
    <path class="cls-1" d="M5.7,7v.5H5.3V7.2a.71975.71975,0,0,1-.7.4.63172.63172,0,0,1-.7-.7c0-.5.4-.7,1-.7h.4V6c0-.2-.1-.4-.5-.4-.3,0-.4.2-.4.3H4c0-.3.2-.7.9-.7.6,0,.9.2.9.7V7Zm-.4-.6H5c-.4,0-.6.1-.6.4a.3663.3663,0,0,0,.4.4c.4,0,.5-.3.5-.8Z" transform="translate(-1.35556 -4.29999)"/>
    <path class="cls-1" d="M6.2,5.9V5.3h.4v.4c.1-.3.4-.4.7-.5v.4c-.5,0-.7.2-.7.8V7.5H6.2Z" transform="translate(-1.35556 -4.29999)"/>
    <path class="cls-1" d="M7.6,4.3H8v.5H7.6Zm0,1H8V7.5H7.6Z" transform="translate(-1.35556 -4.29999)"/>
    <path class="cls-1" d="M8.7,6.9c.1.2.2.4.5.4s.4-.1.4-.3-.1-.3-.5-.4c-.6-.2-.8-.4-.8-.7s.2-.6.8-.6a.82207.82207,0,0,1,.9.6H9.6c0-.1-.1-.3-.5-.3-.3,0-.4.1-.4.3s.1.2.5.3c.7.2.8.4.8.7,0,.4-.3.7-.9.7s-.9-.3-.9-.7Z" transform="translate(-1.35556 -4.29999)"/>
    <path class="cls-1" d="M1.6,11.3v-.7h.5v.7Z" transform="translate(-1.35556 -4.29999)"/>
    <path class="cls-1" d="M4.3,8.1v3.2H3.9V11c-.1.2-.3.3-.7.3-.6,0-.9-.5-.9-1.1,0-.7.4-1.2,1-1.2q.6,0,.6.3V8.1ZM2.8,10.2c0,.5.2.8.5.8.5,0,.6-.4.6-.8,0-.5-.1-.8-.6-.8C3,9.4,2.8,9.7,2.8,10.2Z" transform="translate(-1.35556 -4.29999)"/>
    <path class="cls-1" d="M5.1,10.2c0,.4.2.7.6.7a.62344.62344,0,0,0,.5-.3h.4a.8871.8871,0,0,1-.9.7,1.021,1.021,0,0,1-1-1.1A.96453.96453,0,0,1,5.7,9a1.021,1.021,0,0,1,1,1.1v.2H5.1ZM6.2,10a.56.56,0,0,0-.5-.6c-.4,0-.5.3-.6.6Z" transform="translate(-1.35556 -4.29999)"/>
    <path class="cls-1" d="M7.2,10.6c0,.3.2.4.5.4s.4-.1.4-.3-.1-.3-.5-.4c-.6-.2-.8-.4-.8-.7s.3-.6.8-.6a.82207.82207,0,0,1,.9.6H8.1c0-.1-.1-.3-.5-.3-.3,0-.4.1-.4.3s.1.2.5.3c.7.2.8.4.8.7,0,.4-.3.7-.9.7s-.9-.3-.9-.7Z" transform="translate(-1.35556 -4.29999)"/>
    <path class="cls-1" d="M8.8,8.1h.4v.5H8.8Zm0,1h.4v2.2H8.8Z" transform="translate(-1.35556 -4.29999)"/>
    <path class="cls-1" d="M11.6,11.1c0,.7-.3,1.1-1,1.1s-.9-.4-.9-.7h.4a.462.462,0,0,0,.5.3c.5,0,.6-.3.6-.8v-.2a.71975.71975,0,0,1-.7.4c-.6,0-.9-.5-.9-1.1,0-.7.4-1.2,1-1.2.4,0,.6.2.6.3V8.9h.4v2.2Zm-1.6-1c0,.5.2.7.6.7.5,0,.6-.3.6-.8s-.1-.8-.6-.8A.961.961,0,0,0,10,10.1Z" transform="translate(-1.35556 -4.29999)"/>
    <path class="cls-1" d="M12,9.6V9h.4v.3a1.20687,1.20687,0,0,1,.8-.3.71326.71326,0,0,1,.7.8v1.4h-.4V9.9c0-.3-.1-.5-.4-.5-.4,0-.6.3-.6.7v1.2H12Z" transform="translate(-1.35556 -4.29999)"/>
  </g>
  <g>
    <path class="cls-1" d="M13.7,8.2h-.2V8.1H14v.1h-.3l.1.5h-.1Z" transform="translate(-1.35556 -4.29999)"/>
    <path class="cls-1" d="M14.5,8.4V8.1h0a1.6895,1.6895,0,0,1-.2.5h-.1a.76385.76385,0,0,0-.2-.5h0v.5h0V8.1h.1c.1.2.1.4.2.5h0a1.6895,1.6895,0,0,1,.2-.5h.1v.6h-.1Z" transform="translate(-1.35556 -4.29999)"/>
  </g>
  <g id="Shape_1" data-name="Shape 1">
    <polygon class="cls-1" points="0.144 3.3 8.844 3.3 8.844 3.3 0.144 3.3"/>
  </g>
  <g id="Shape_1_copy" data-name="Shape 1 copy">
    <polygon class="cls-1" points="0.144 7 13.044 7 13.044 7 0.144 7"/>
  </g>
  <g id="Ellipse_1" data-name="Ellipse 1">
    <path class="cls-1" d="M1.4,7.5h0c-.1.1,0,.1,0,.1.1,0,.1,0,0-.1Z" transform="translate(-1.35556 -4.29999)"/>
  </g>
</svg>
